<?xml version="1.0" encoding="UTF-8" standalone="no"?>
<svg viewBox="0 0 332.85334 332.85334" width="316" height="316" version="1.1" xmlns="http://www.w3.org/2000/svg">
  <defs>
    <style>.cls-1{fill:#203a73;fill-rule:evenodd;}.cls-2{fill:#fff;fill-rule:evenodd;}.cls-3{fill:#fce6ab;fill-rule:evenodd;}.cls-4{fill:#815813;fill-rule:evenodd;}.cls-5{fill:#2a8acb;fill-rule:evenodd;}.cls-6{fill:#346138;fill-rule:evenodd;}</style>
  </defs>
  <g transform="matrix(0.89542101,0,0,0.90562701,3.5983438,3.6091298)">
    <path class="cls-1" d="m 365.09,171.54 a 2.07,2.07 0 0 0 -2.06,-2 l -14.75,-0.07 -1.15,-11.37 14.39,-3.16 a 2,2 0 0 0 1.58,-2.38 l -3.55,-18.67 a 2,2 0 0 0 -0.91,-1.33 2.08,2.08 0 0 0 -1.59,-0.28 l -14.55,3.36 -3.58,-11.06 13.42,-6.22 a 2,2 0 0 0 1,-2.67 l -7.65,-17.32 a 2.08,2.08 0 0 0 -2.81,-1 l -12.88,6.14 -5.94,-9.77 11.68,-8.16 a 2,2 0 0 0 0.51,-2.84 l -11.31,-16 a 2.09,2.09 0 0 0 -1.38,-0.85 2.17,2.17 0 0 0 -1.58,0.4 l -11.29,8.57 -7.86,-8.44 9.49,-10.38 a 2,2 0 0 0 -0.1,-2.85 L 298,39.73 a 2.1,2.1 0 0 0 -1.44,-0.57 h -0.12 a 2.11,2.11 0 0 0 -1.48,0.74 L 285.7,51.06 276,43.77 283.3,32 a 2,2 0 0 0 0.24,-1.59 2.06,2.06 0 0 0 -1,-1.26 l -16.8,-9.4 a 2.09,2.09 0 0 0 -2.84,0.79 l -6.67,12 -10.81,-4.69 4.66,-13.19 A 2,2 0 0 0 250,13 2.06,2.06 0 0 0 248.8,12 L 230.39,6 a 2.1,2.1 0 0 0 -2.61,1.3 l -4.51,13.27 -11.11,-2.1 1.67,-14.25 A 2,2 0 0 0 213.39,2.71 2.05,2.05 0 0 0 212,1.92 L 192.64,0 a 2.06,2.06 0 0 0 -2.27,1.83 L 188.89,16.31 177.17,16.08 175.83,2 A 2.07,2.07 0 0 0 173.6,0.14 l -18.9,1.5 A 2.08,2.08 0 0 0 153.27,2.37 2,2 0 0 0 152.8,3.9 L 154.35,18.69 143,21.21 138.61,7.53 A 2.07,2.07 0 0 0 136,6.21 l -18.47,6.27 a 2,2 0 0 0 -1.28,2.63 l 4.75,13.07 -10.73,5.11 -7.39,-12.7 a 2.15,2.15 0 0 0 -2.82,-0.77 L 83.12,29.3 a 2,2 0 0 0 -1,1.26 2,2 0 0 0 0.23,1.58 l 7.65,12.32 -9.5,7 -9.17,-10.64 A 2.08,2.08 0 0 0 68.4,40.59 L 53.53,53.26 a 2,2 0 0 0 -0.14,3 l 10,10.3 -7.77,8.89 -11.36,-8.9 a 2.09,2.09 0 0 0 -1.55,-0.42 2.13,2.13 0 0 0 -1.38,0.8 L 29.41,82.56 A 2,2 0 0 0 29,84.1 2.11,2.11 0 0 0 29.86,85.46 L 41.75,93.8 36.21,103.87 23,97.58 a 2.16,2.16 0 0 0 -1.58,-0.08 2.07,2.07 0 0 0 -1.19,1.06 l -8.51,17.68 a 2.1,2.1 0 0 0 -0.06,1.63 2,2 0 0 0 1.15,1.13 L 26.5,124.51 23,135.62 8.8,132 a 2.09,2.09 0 0 0 -1.64,0.25 2,2 0 0 0 -0.92,1.35 L 2.5,153.31 a 2.06,2.06 0 0 0 1.61,2.38 l 14,2.9 -0.57,11 -15.33,-0.67 a 2.09,2.09 0 0 0 -1.43,0.56 2.06,2.06 0 0 0 -0.65,1.47 L 0,190.27 a 2,2 0 0 0 0.63,1.47 2.07,2.07 0 0 0 1.49,0.59 L 17,192 l 1.16,11.72 -14.07,2.75 a 2,2 0 0 0 -1.64,2.4 L 6.23,228 a 2.06,2.06 0 0 0 2.51,1.6 l 14.26,-3.34 3.18,10.87 -13.27,4.94 a 2.14,2.14 0 0 0 -1.17,1.1 2.07,2.07 0 0 0 0,1.6 l 7.64,18.46 a 2.08,2.08 0 0 0 1.17,1.12 2.05,2.05 0 0 0 1.63,-0.05 l 13.33,-6.17 5.57,9.73 -11.72,8.19 a 2,2 0 0 0 -0.51,2.84 l 11.31,16.2 a 2.09,2.09 0 0 0 1.35,0.85 2,2 0 0 0 1.57,-0.37 l 12,-8.63 7.62,8.2 -10.11,10.38 A 2,2 0 0 0 52,307 a 2.07,2.07 0 0 0 0.66,1.44 l 14.74,13.49 a 2.12,2.12 0 0 0 1.42,0.55 h 0.12 a 2.12,2.12 0 0 0 1.46,-0.72 l 9.51,-11.21 9.33,6.85 -7.86,11.76 a 2,2 0 0 0 -0.29,1.58 2,2 0 0 0 1,1.3 l 17.48,10.32 a 2.15,2.15 0 0 0 1.61,0.22 2.07,2.07 0 0 0 1.27,-1 l 7.13,-12.86 10.55,4.64 -5.13,13.18 a 2,2 0 0 0 0,1.58 2.09,2.09 0 0 0 1.19,1.07 l 18.86,6.69 a 2.06,2.06 0 0 0 1.65,-0.12 2,2 0 0 0 1.05,-1.27 l 3.89,-14 11.84,2.45 -2.26,13.75 a 2.06,2.06 0 0 0 0.39,1.57 2.14,2.14 0 0 0 1.43,0.8 l 19.79,2.13 a 2.06,2.06 0 0 0 1.56,-0.46 2,2 0 0 0 0.73,-1.41 l 1.08,-14 11.82,0.06 0.73,14 a 2.06,2.06 0 0 0 0.71,1.44 2,2 0 0 0 1.36,0.51 H 191 l 19.78,-1.72 H 211 a 2.07,2.07 0 0 0 1.32,-0.75 2,2 0 0 0 0.44,-1.54 l -1.76,-13.74 11.09,-2.66 3.91,13.81 a 2.1,2.1 0 0 0 1,1.27 2.13,2.13 0 0 0 1.64,0.1 l 18.94,-6.73 a 2.05,2.05 0 0 0 1.17,-1.05 2.13,2.13 0 0 0 0.08,-1.57 l -4.75,-13 10.92,-4.75 7,12.7 a 2,2 0 0 0 1.26,1 2.08,2.08 0 0 0 1.6,-0.21 L 282,332.55 a 2,2 0 0 0 1,-1.27 2,2 0 0 0 -0.25,-1.56 l -7.36,-11.87 9.46,-7 8.93,10.8 a 2.08,2.08 0 0 0 1.46,0.76 h 0.15 a 2.08,2.08 0 0 0 1.4,-0.54 l 14.64,-13.34 a 2,2 0 0 0 0.13,-2.88 l -9.59,-10.48 7.5,-7.92 11.21,8.29 a 2.14,2.14 0 0 0 2.88,-0.38 l 12.37,-15.63 a 2,2 0 0 0 0.42,-1.55 2,2 0 0 0 -0.85,-1.38 l -12.09,-8.53 5.72,-9.92 13,5.88 a 2.12,2.12 0 0 0 2.74,-1 l 8.06,-17.24 a 2.07,2.07 0 0 0 0.05,-1.6 2.09,2.09 0 0 0 -1.13,-1.15 l -13.22,-5.48 3.86,-11.38 14.06,3.48 a 2.09,2.09 0 0 0 1.6,-0.24 2,2 0 0 0 0.92,-1.31 l 4.2,-19.07 a 2,2 0 0 0 -0.29,-1.56 2.1,2.1 0 0 0 -1.35,-0.89 l -14.32,-2.7 0.92,-11.29 15.18,-0.13 a 2.13,2.13 0 0 0 1.46,-0.62 2,2 0 0 0 0.59,-1.47 z"/>
    <path class="cls-2" d="m 344.24,190.43 -1.21,15 a 2,2 0 0 0 1.68,2.17 l 14.06,2.65 -3.29,14.95 -13.85,-3.42 a 2.1,2.1 0 0 0 -2.46,1.33 l -5.09,15 a 2,2 0 0 0 1.17,2.54 l 13,5.4 -6.25,13.44 -12.89,-5.82 a 2.12,2.12 0 0 0 -2.66,0.85 l -7.59,13.15 a 2,2 0 0 0 0.6,2.68 l 11.86,8.37 -9.8,12.37 -11.08,-8.19 a 2.15,2.15 0 0 0 -2.75,0.24 l -10.09,10.64 a 2,2 0 0 0 0,2.77 l 9.49,10.37 -11.51,10.5 -8.79,-10.65 a 2.14,2.14 0 0 0 -2.85,-0.34 l -12.57,9.26 a 2,2 0 0 0 -0.52,2.71 l 7.25,11.68 -13.46,7.79 -6.87,-12.5 a 2.12,2.12 0 0 0 -2.66,-0.9 l -14.39,6.29 a 2.08,2.08 0 0 0 -1.1,2.57 l 4.7,12.88 -14.9,5.29 -3.87,-13.59 a 2.12,2.12 0 0 0 -2.49,-1.44 L 208.23,340 a 2,2 0 0 0 -1.56,2.24 l 1.7,13.37 -15.54,1.39 -0.71,-13.8 a 2.08,2.08 0 0 0 -2.06,-1.95 l -15.71,-0.08 v 0 a 2.07,2.07 0 0 0 -2.08,1.9 l -1.06,13.8 -15.49,-1.68 2.28,-13.55 a 2,2 0 0 0 -1.61,-2.32 l -15.7,-3.27 a 2.11,2.11 0 0 0 -2.43,1.46 l -3.8,13.77 -14.83,-5.28 5,-13 a 2,2 0 0 0 -1.1,-2.61 l -14.08,-6.2 a 2.13,2.13 0 0 0 -2.66,0.88 l -7,12.65 L 86,329.62 93.78,318 a 2,2 0 0 0 -0.49,-2.77 l -12.48,-9.15 a 2.11,2.11 0 0 0 -2.82,0.33 l -9.37,11 L 57,306.86 67,296.59 a 2,2 0 0 0 0,-2.8 l -10.2,-11 a 2.14,2.14 0 0 0 -2.74,-0.28 L 42.35,291 33.41,278.2 45,270.14 a 2,2 0 0 0 0.61,-2.68 l -7.46,-13 a 2.11,2.11 0 0 0 -2.68,-0.85 l -13.09,6.06 -6,-14.51 13.07,-4.87 a 2,2 0 0 0 1.26,-2.48 L 26.46,223.23 A 2.12,2.12 0 0 0 24,221.82 l -14.09,3.3 -3,-15 13.93,-2.71 a 2,2 0 0 0 1.66,-2.2 L 21,189.71 a 2.06,2.06 0 0 0 -2.11,-1.85 v 0 l -14.72,0.33 0.08,-15.09 15.25,0.67 a 2,2 0 0 0 2.05,-1.94 l 0.76,-14.78 a 2,2 0 0 0 -1.64,-2.1 l -13.73,-2.85 3,-15.64 14,3.62 a 2.09,2.09 0 0 0 2.49,-1.38 L 31,123.94 a 2.05,2.05 0 0 0 -1.19,-2.5 L 16.4,116 23.08,102.13 36.2,108.4 a 2.12,2.12 0 0 0 2.71,-0.87 L 46.26,94.15 A 2,2 0 0 0 45.65,91.51 L 34,83.34 43.36,71.06 54.63,79.84 a 2.17,2.17 0 0 0 2.85,-0.27 L 67.78,67.79 A 2,2 0 0 0 67.7,65 L 57.89,55 69.52,45 78.58,55.53 a 2.13,2.13 0 0 0 2.81,0.32 L 94,46.62 a 2,2 0 0 0 0.52,-2.7 L 87,31.82 100.24,24.39 107.6,37 a 2.13,2.13 0 0 0 2.69,0.83 l 14.15,-6.76 a 2,2 0 0 0 1,-2.53 l -4.68,-12.86 14.48,-4.91 4.29,13.48 a 2.1,2.1 0 0 0 2.47,1.37 l 15,-3.34 a 2,2 0 0 0 1.61,-2.2 l -1.47,-14.53 14.76,-1.16 1.32,13.9 a 2.07,2.07 0 0 0 2,1.87 l 15.53,0.3 a 2.05,2.05 0 0 0 2,-1.85 l 1.47,-14.32 15.18,1.5 -1.65,14.06 a 2.05,2.05 0 0 0 1.66,2.25 l 14.79,2.8 a 2.06,2.06 0 0 0 2.35,-1.36 l 4.43,-13 14.52,4.66 -4.61,13 A 2,2 0 0 0 242,30.76 L 256.33,37 a 2.11,2.11 0 0 0 2.64,-0.88 l 6.57,-11.79 13.11,7.34 -7.15,11.54 a 2,2 0 0 0 0.5,2.69 l 12.71,9.61 a 2.12,2.12 0 0 0 2.85,-0.33 l 9.12,-11 11.22,10.62 -9.41,10.28 a 2,2 0 0 0 0,2.77 L 308.92,79 a 2.14,2.14 0 0 0 2.79,0.23 l 11.07,-8.41 8.89,12.55 -11.57,8.13 a 2,2 0 0 0 -0.58,2.72 l 7.9,13 a 2.14,2.14 0 0 0 2.68,0.8 l 12.67,-6.02 6,13.55 -13.23,6.13 a 2,2 0 0 0 -1.09,2.47 l 4.7,14.57 a 2.1,2.1 0 0 0 2.45,1.38 l 14.3,-3.3 2.78,14.61 -14.22,3.12 a 2.07,2.07 0 0 0 -1.62,2.21 l 1.53,15 a 2,2 0 0 0 2,1.84 l 14.59,0.08 0.28,14.8 -15,0.13 a 2.06,2.06 0 0 0 -2,1.84 z"/>
    <path class="cls-1" d="m 126.21,184.43 c 1.91,1.48 1.44,3.2 0.42,4.7 a 0.48,0.48 0 0 1 -0.67,0.08 v -2.61 a 1,1 0 0 0 -1.89,0 v 2.61 a 0.47,0.47 0 0 1 -0.68,-0.08 c -1,-1.49 -1.5,-3.21 0.4,-4.69 v -9.25 c -1.91,-1.48 -1.44,-3.2 -0.42,-4.7 a 0.48,0.48 0 0 1 0.68,-0.07 V 173 a 1,1 0 0 0 1.89,0 v -2.6 a 0.48,0.48 0 0 1 0.68,0.07 c 1,1.5 1.5,3.22 -0.41,4.7 z"/>
    <path class="cls-1" d="m 241.73,184.43 c 1.91,1.48 1.44,3.2 0.42,4.7 a 0.49,0.49 0 0 1 -0.68,0.08 v -2.61 a 1,1 0 0 0 -1.9,0 v 2.61 a 0.47,0.47 0 0 1 -0.68,-0.08 c -1,-1.49 -1.5,-3.21 0.4,-4.69 v -9.25 c -1.9,-1.48 -1.44,-3.2 -0.42,-4.7 a 0.48,0.48 0 0 1 0.68,-0.07 V 173 a 1,1 0 0 0 1.9,0 v -2.6 a 0.48,0.48 0 0 1 0.68,0.07 c 1,1.5 1.51,3.22 -0.4,4.7 z"/>
    <path class="cls-1" d="m 182.73,169.31 a 11.33,11.33 0 1 0 11.45,11.32 11.4,11.4 0 0 0 -11.45,-11.32 z m 0,23.45 A 12.13,12.13 0 1 1 195,180.63 12.22,12.22 0 0 1 182.73,192.76 Z"/>
    <path class="cls-1" d="m 182.73,61.9 c -66.23,0 -120.1,53.26 -120.1,118.73 0,65.47 53.87,118.73 120.1,118.73 66.23,0 120.1,-53.26 120.1,-118.73 C 302.83,115.16 249,61.9 182.73,61.9 Z m 0,240.67 c -68,0 -123.35,-54.7 -123.35,-121.94 0,-67.24 55.33,-121.94 123.35,-121.94 68.02,0 123.35,54.7 123.35,121.94 0,67.24 -55.34,121.94 -123.35,121.94 z"/>
    <path class="cls-6" d="m 182.73,112.77 c -37.85,0 -68.65,30.44 -68.65,67.87 0,37.43 30.8,67.86 68.65,67.86 37.85,0 68.65,-30.44 68.65,-67.86 0,-37.42 -30.8,-67.87 -68.65,-67.87 z m 0,137.68 c -38.94,0 -70.63,-31.32 -70.63,-69.81 0,-38.49 31.69,-69.82 70.63,-69.82 38.94,0 70.62,31.31 70.62,69.82 0,38.51 -31.68,69.81 -70.62,69.81 z"/>
  </g>
</svg>
